<svg viewBox="0 0 182 236" xmlns="http://www.w3.org/2000/svg" xml:space="preserve" style="fill-rule:evenodd;clip-rule:evenodd;stroke-linejoin:round;stroke-miterlimit:2"><path d="M294.641 45.787s-22.862 29.956-32.126 44.171c-8.719 13.378-23.459 41.122-23.459 41.122l-17.478-22.23s-24.987 33.467-27.849 91.964c-1.629 33.279 27.645 91.986 95.381 92.281 66.277.289 96.213-48.979 95.357-86.515-1.509-66.192-89.826-160.793-89.826-160.793Z" style="fill:url(#a)" transform="matrix(.95399 0 0 .95399 -184.754 -43.68)"/><path d="M370.912 95.368s-64.133 70.099-64.346 108.093c-.121 21.681 11.673 57.057 61.918 57.15 52.917.097 65.171-39.118 65.198-57.826.057-39.649-62.77-107.417-62.77-107.417Z" style="fill:#ff9859" transform="matrix(.95876 0 0 .95399 -262.34 -39.89)"/><defs><linearGradient id="a" x1="0" y1="0" x2="1" y2="0" gradientUnits="userSpaceOnUse" gradientTransform="rotate(-89.636 292.019 1.09) scale(247.31398)"><stop offset="0" style="stop-color:#ff2f00;stop-opacity:1"/><stop offset="1" style="stop-color:#ff8749;stop-opacity:1"/></linearGradient></defs></svg>