<svg width="57.063" height="38.042" viewBox="0 0 15.098 10.065" xmlns="http://www.w3.org/2000/svg"><path fill="#00dc82" d="M97.44 143.731h5.586c.179 0 .35-.062.504-.15.154-.09.313-.2.402-.353.09-.153.151-.327.151-.503 0-.177-.061-.35-.15-.504l-3.775-6.492a.918.918 0 0 0-.353-.352 1.215 1.215 0 0 0-.553-.15c-.178 0-.35.062-.503.15a.918.918 0 0 0-.353.352l-.956 1.661-1.912-3.221c-.09-.153-.198-.314-.353-.402-.154-.089-.324-.101-.503-.101-.178 0-.349.012-.503.1-.155.089-.314.25-.403.403l-4.68 8.052c-.09.153-.1.327-.1.504 0 .176.01.35.1.503.089.153.248.264.403.352.154.089.324.151.503.151h3.523c1.396 0 2.412-.626 3.12-1.812l1.711-2.969.906-1.56 2.768 4.73h-3.674zm-3.976-1.61H91l3.673-6.342 1.862 3.171-1.233 2.15c-.47.77-1.007 1.02-1.837 1.02z" style="stroke-width:.0356084" transform="translate(-88.985 -133.666)"/></svg>