<svg xmlns="http://www.w3.org/2000/svg" fill="none" viewBox="0 0 1080 174"><path fill="#f44250" d="M231.527 86.9999c0 7.9643-3.23 15.1731-8.46 20.3871-5.23 5.219-12.453 8.448-20.433 8.448s-15.204 3.224-20.428 8.443c-5.229 5.22-8.465 12.429-8.465 20.393s-3.231 15.173-8.46 20.387c-5.23 5.219-12.453 8.449-20.434 8.449-7.98 0-15.203-3.23-20.427-8.449-5.23-5.214-8.466-12.423-8.466-20.387s3.236-15.173 8.466-20.393c5.224-5.219 12.447-8.443 20.427-8.443 7.981 0 15.204-3.229 20.434-8.448 5.229-5.214 8.46-12.4228 8.46-20.3871 0-15.9288-12.933-28.8356-28.894-28.8356-7.98 0-15.203-3.2296-20.427-8.4488-5.23-5.2135-8.466-12.4224-8.466-20.3868s3.236-15.1732 8.466-20.39248c5.224-5.21924 12.447-8.443056 20.427-8.443056 15.961 0 28.894 12.906836 28.894 28.835536 0 7.9644 3.236 15.1733 8.465 20.3868 5.224 5.2192 12.448 8.4488 20.428 8.4488 15.96 0 28.893 12.9068 28.893 28.8356"/><path fill="#121212" d="M115.954 86.9996c0-15.9254-12.936-28.8355-28.8932-28.8355-15.9573 0-28.8932 12.9101-28.8932 28.8355s12.9359 28.8354 28.8932 28.8354c15.9572 0 28.8932-12.91 28.8932-28.8354M58.1676 144.671c0-15.926-12.936-28.836-28.8933-28.836S.381104 128.745.381104 144.671c0 15.925 12.935896 28.835 28.893196 28.835s28.8933-12.91 28.8933-28.835M289.313 144.671c0-15.926-12.935-28.836-28.893-28.836-15.957 0-28.893 12.91-28.893 28.836 0 15.925 12.936 28.835 28.893 28.835 15.958 0 28.893-12.91 28.893-28.835"/><g fill="#121212" clip-path="url(#a)"><path d="M562.482 173.247c-38.094 0-64.119-25.757-64.119-62.779 0-37.0225 26.025-62.7795 64.119-62.7795s64.387 26.025 64.387 62.7795c0 36.754-26.293 62.779-64.387 62.779m0-29.24c16.904 0 25.221-13.688 25.221-33.539 0-19.8512-8.317-33.5391-25.221-33.5391-16.903 0-24.953 13.6879-24.953 33.5391 0 19.851 7.782 33.539 24.953 33.539M833.64 141.116c-9.423 0-14.403-4.432-14.403-14.96V74.8983h32.691V47.7792h-32.691V1.15527H791.75L786.1 26.1978c-2.757 10.2827-5.28 16.6242-12.203 19.8843-.792.3685-2.768.9155-4.488 1.3063-1.395.3126-2.813.4689-4.242.4689h-12.829v.067h-17.506c-11.254 0-20.387 9.1216-20.387 20.3868v43.2409c0 19.047-7.246 31.116-21.726 31.116-14.481 0-19.851-9.389-19.851-26.293V47.9243h-38.619v77.8407c0 25.489 10.193 47.483 42.381 47.483 15.285 0 27.265-6.017 34.466-16.066 1.049-1.462 3.349-.692 3.349 1.094v11.746h38.887V83.8412c0-4.9459 4.008-8.9541 8.954-8.9541h17.596v62.0649c0 27.711 18.008 36.296 37.96 36.296 16.066 0 26.594-3.874 35.738-10.807v-26.315c-7.48 3.327-13.855 4.99-19.951 4.99zM981.561 130.865c-6.174 27.097-27.364 42.393-58.491 42.393-37.827 0-64.655-23.078-64.655-60.904 0-37.8259 27.364-64.6548 63.851-64.6548 39.433 0 60.099 27.0968 60.099 59.5638v6.621h-85.856c-1.954 21.827 12.873 30.133 27.9 30.133 13.42 0 21.727-5.102 26.025-16.099zm-36.486-35.9278c-.804-11.8011-8.318-19.0805-23.077-19.0805-15.564 0-22.81 6.4643-24.953 19.0805h48.03M1076.24 85.7486c-6.18-3.4834-12.07-4.8344-20.39-4.8344-16.1 0-26.83 9.1216-26.83 29.7768v59.329h-38.627V47.9225h38.627v16.401c0 1.1388 1.52 1.496 2.03.48 5.63-11.2317 16.86-20.0965 30.98-20.0965 7.24 0 13.42 2.1437 16.63 4.8344l-2.41 36.2183zM547.321 31.5345v-7.5362h-24.864v7.5362h-7.079V2.23828h26.762c11.422 0 12.226.71454 12.226 10.88562 0 4.2872-.894 5.4372-3.037 6.5314l-1.921.9825 1.91 1.0048c2.277 1.1946 3.048 1.5965 3.048 8.3847v1.5072h-7.045m-24.864-13.1744h24.864V7.88763h-24.864V18.3601M578.493 2.23828h32.333v5.67168h-30.759v6.59834h29.944v4.7785h-29.944v6.6095h30.77v5.6047l-32.333.0335c-3.16 0-5.717-2.5567-5.717-5.7052V7.95462c0-3.14845 2.557-5.70517 5.706-5.70517zM655.562 31.5345l-2.411-5.1916h-19.404l-2.412 5.1916h-6.755l12.427-26.78416c.703-1.52956 2.255-2.51206 3.93-2.51206h4.99c1.686 0 3.227.9825 3.93 2.51206l12.427 26.78416h-6.755zM643.46 8.06627c-.748 0-1.407.42426-1.731 1.10531l-5.761 12.40402h14.972l-5.75-12.40402c-.312-.68105-.982-1.10531-1.73-1.10531"/><path d="M694.862 32.4153c-18.812 0-19.549 0-19.549-15.5301 0-15.53015.737-15.51899 19.549-15.51899 16.859 0 18.902.70338 19.382 9.16629h-6.911V7.01556h-25.165V26.766h25.165v-3.4946h6.911c-.469 8.4405-2.523 9.1439-19.382 9.1439M745.282 31.5345V7.02795H729.16V2.23828h38.988v4.78967h-16.122V31.5345zM454.419 169.819c-3.484-4.555-5.627-15.005-6.967-32.422-1.34-19.293-9.646-23.58-24.92-23.58h-30.278v56.013h-44.76V.986328h85.221c43.676 0 65.391 20.632372 65.391 53.601872 0 24.6517-15.273 40.7289-35.905 43.4196 17.417 3.4832 27.599 13.3972 29.475 32.9582 2.411 25.188 3.215 32.69 8.842 38.853zm-29.743-91.115c19.293 0 28.939-4.8232 28.939-20.3645 0-13.6656-9.646-20.9003-28.939-20.9003h-32.422v41.276h32.422z"/></g><defs><clipPath id="a"><path fill="#fff" d="M347.494.986328h731.156v172.261H347.494z"/></clipPath></defs></svg>