<svg width="47.192" height="54.271" viewBox="0 0 12.486 14.359" xmlns="http://www.w3.org/2000/svg"><g fill="currentColor"><path fill-rule="evenodd" d="M11.938 11.074c.13 1.659.13 2.436.13 3.285H8.225c0-.184.003-.354.006-.525.01-.533.021-1.09-.065-2.212-.114-1.644-.823-2.01-2.125-2.01H0v-2.99h6.225c1.645 0 2.468-.5 2.468-1.825 0-1.164-.823-1.87-2.468-1.87H0V0h6.91c3.725 0 5.576 1.758 5.576 4.567 0 2.1-1.302 3.47-3.062 3.698 1.486.297 2.354 1.142 2.514 2.809z" clip-rule="evenodd"/><path d="M0 14.36v-2.23h4.062c.678 0 .825.502.825.802v1.427z"/></g></svg>