<svg width="57.064" height="53.099" viewBox="0 0 15.098 14.049" xmlns="http://www.w3.org/2000/svg"><defs><linearGradient id="a" x1="27.5" x2="152" y1="3" y2="63.5" gradientUnits="userSpaceOnUse"><stop offset=".1" stop-color="#76b3e1"/><stop offset=".3" stop-color="#dcf2fd"/><stop offset="1" stop-color="#76b3e1"/></linearGradient><linearGradient id="b" x1="95.8" x2="74" y1="32.6" y2="105.2" gradientUnits="userSpaceOnUse"><stop offset="0" stop-color="#76b3e1"/><stop offset=".5" stop-color="#4377bb"/><stop offset="1" stop-color="#1f3b77"/></linearGradient><linearGradient id="c" x1="18.4" x2="144.3" y1="64.2" y2="149.8" gradientUnits="userSpaceOnUse"><stop offset="0" stop-color="#315aa9"/><stop offset=".5" stop-color="#518ac8"/><stop offset="1" stop-color="#315aa9"/></linearGradient><linearGradient id="d" x1="75.2" x2="24.4" y1="74.5" y2="260.8" gradientUnits="userSpaceOnUse"><stop offset="0" stop-color="#4377bb"/><stop offset=".5" stop-color="#1a336b"/><stop offset="1" stop-color="#1a336b"/></linearGradient></defs><path fill="#76b3e1" d="M15.098 2.977S10.065-.726 6.172.128l-.285.095c-.57.19-1.044.475-1.33.855l-.19.284-1.423 2.47 2.468.474c1.045.665 2.374.95 3.609.665l4.368.854z"/><path fill="url(#a)" d="M163 35S110-4 69 5l-3 1c-6 2-11 5-14 9l-2 3-15 26 26 5c11 7 25 10 38 7l46 9z" opacity=".3" style="fill:url(#a)" transform="matrix(.09496 0 0 .09496 -.38 -.347)"/><path fill="#518ac8" d="m4.558 2.977-.38.095c-1.614.475-2.089 1.994-1.234 3.323.949 1.235 2.943 1.9 4.557 1.425l5.888-1.995S8.356 2.122 4.558 2.977z"/><path fill="url(#b)" d="m52 35-4 1c-17 5-22 21-13 35 10 13 31 20 48 15l62-21S92 26 52 35Z" opacity=".3" style="fill:url(#b)" transform="matrix(.09496 0 0 .09496 -.38 -.347)"/><path fill="url(#c)" d="M134 80a45 45 0 0 0-48-15L24 85 4 120l112 19 20-36c4-7 3-15-2-23z" style="fill:url(#c)" transform="matrix(.09496 0 0 .09496 -.38 -.347)"/><path fill="url(#d)" d="M114 115a45 45 0 0 0-48-15L4 120s53 40 94 30l3-1c17-5 23-21 13-34z" style="fill:url(#d)" transform="matrix(.09496 0 0 .09496 -.38 -.347)"/></svg>