<svg width="45.109" height="54.271" viewBox="0 0 11.935 14.359" xmlns="http://www.w3.org/2000/svg"><path d="M57.91 143.59c-1.327-1.91-3.967-2.47-5.865-1.265l-3.345 2.14a3.802 3.802 0 0 0-1.728 2.568c-.158.888-.024 1.8.402 2.591a3.673 3.673 0 0 0-.572 1.436 4.093 4.093 0 0 0 .693 3.09c1.338 1.91 3.966 2.47 5.864 1.265l3.346-2.129a3.802 3.802 0 0 0 1.728-2.567c.158-.888.024-1.8-.402-2.591.292-.438.487-.925.572-1.436a4.009 4.009 0 0 0-.694-3.102" style="fill:#ff3e00;stroke-width:.121661" transform="translate(-46.738 -141.69)"/><path d="M51.717 154.332a2.652 2.652 0 0 1-2.847-1.058 2.464 2.464 0 0 1-.426-1.861c.025-.11.049-.207.073-.317l.061-.194.17.121c.402.292.84.511 1.314.657l.122.037-.012.121a.814.814 0 0 0 .134.5.805.805 0 0 0 1.07.242l3.334-2.129a.69.69 0 0 0 .316-.462.755.755 0 0 0-.122-.56.798.798 0 0 0-.863-.316 1.05 1.05 0 0 0-.207.085l-1.278.815a2.263 2.263 0 0 1-.681.292 2.652 2.652 0 0 1-2.847-1.058 2.457 2.457 0 0 1-.413-1.861 2.304 2.304 0 0 1 1.046-1.545l3.345-2.13c.207-.133.438-.23.682-.304a2.652 2.652 0 0 1 2.847 1.059c.389.535.535 1.204.425 1.861-.024.11-.048.207-.085.316l-.06.195-.17-.122a4.438 4.438 0 0 0-1.315-.656l-.121-.037.012-.122a.814.814 0 0 0-.134-.498.798.798 0 0 0-.864-.317 1.05 1.05 0 0 0-.207.085l-3.333 2.13a.69.69 0 0 0-.317.462.755.755 0 0 0 .122.56c.195.28.535.4.864.316a1.05 1.05 0 0 0 .207-.085l1.277-.816c.207-.133.438-.23.681-.304a2.652 2.652 0 0 1 2.847 1.059c.39.535.536 1.204.426 1.861a2.304 2.304 0 0 1-1.046 1.545l-3.346 2.13a2.648 2.648 0 0 1-.681.303" style="fill:#fff;stroke-width:.121661" transform="translate(-46.738 -141.69)"/></svg>